<svg width="35" height="31" viewBox="0 0 35 31" fill="none" xmlns="http://www.w3.org/2000/svg">
<g style="mix-blend-mode:soft-light" filter="url(#filter0_d)">
<path d="M30.8711 22.1791L27.9814 19.1025C28.4023 18.3992 28.659 17.5989 28.7301 16.7685H29.6529C29.7723 16.7685 29.8867 16.718 29.9711 16.6281C30.0555 16.5383 30.1029 16.4164 30.1029 16.2893C30.1029 16.1623 30.0555 16.0404 29.9711 15.9506C29.8867 15.8607 29.7723 15.8102 29.6529 15.8102H28.7301C28.6263 14.5966 28.1306 13.4587 27.3274 12.5905C26.5241 11.7223 25.4631 11.1774 24.3248 11.0486C23.1866 10.9198 22.0417 11.215 21.085 11.8841C20.1282 12.5531 19.4189 13.5546 19.0779 14.7179C18.8808 14.4749 18.6398 14.2766 18.3692 14.135C18.0986 13.9934 17.804 13.9114 17.5029 13.8938C17.2018 13.9114 16.9072 13.9934 16.6366 14.135C16.3659 14.2766 16.1249 14.4749 15.9279 14.7179C15.5868 13.5546 14.8775 12.5531 13.9208 11.8841C12.9641 11.215 11.8191 10.9198 10.6809 11.0486C9.54271 11.1774 8.48163 11.7223 7.67839 12.5905C6.87515 13.4587 6.37943 14.5966 6.27564 15.8102H5.35284C5.23349 15.8102 5.11903 15.8607 5.03464 15.9506C4.95025 16.0404 4.90284 16.1623 4.90284 16.2893C4.90284 16.4164 4.95025 16.5383 5.03464 16.6281C5.11903 16.718 5.23349 16.7685 5.35284 16.7685H6.27564C6.34682 17.599 6.60354 18.3993 7.02439 19.1027L4.13468 22.1791C4.09228 22.2235 4.05855 22.2763 4.03543 22.3346C4.01231 22.3929 4.00027 22.4555 4 22.5188C3.99974 22.582 4.01124 22.6447 4.03386 22.7033C4.05648 22.7618 4.08976 22.8149 4.13179 22.8597C4.17381 22.9044 4.22375 22.9399 4.2787 22.9639C4.33366 22.988 4.39256 23.0003 4.45199 23C4.51142 22.9997 4.57021 22.9869 4.62496 22.9623C4.67971 22.9377 4.72934 22.9018 4.77098 22.8566L7.57882 19.8673C8.25382 20.6456 9.13371 21.1888 10.1034 21.426C11.0731 21.6632 12.0875 21.5833 13.0138 21.1967C13.9402 20.8102 14.7354 20.135 15.2954 19.2594C15.8555 18.3838 16.1543 17.3487 16.1529 16.2893C16.2082 15.9294 16.3682 15.597 16.6104 15.3391C16.8526 15.0812 17.1648 14.9108 17.5029 14.852C17.8409 14.9108 18.1531 15.0812 18.3953 15.3391C18.6376 15.597 18.7976 15.9294 18.8529 16.2893C18.8514 17.3487 19.1503 18.3838 19.7103 19.2594C20.2704 20.135 21.0656 20.8102 21.992 21.1968C22.9184 21.5833 23.9327 21.6632 24.9024 21.426C25.8721 21.1888 26.752 20.6455 27.427 19.8672L30.2348 22.8566C30.3194 22.9451 30.4335 22.9944 30.5521 22.9939C30.6707 22.9933 30.7843 22.9429 30.8682 22.8536C30.9521 22.7642 30.9995 22.6433 31 22.517C31.0005 22.3907 30.9542 22.2692 30.8711 22.1791ZM11.2029 20.6014C10.4018 20.6014 9.61881 20.3485 8.95279 19.8747C8.28677 19.4009 7.76767 18.7274 7.46113 17.9395C7.1546 17.1516 7.07439 16.2846 7.23066 15.4481C7.38693 14.6116 7.77266 13.8433 8.33907 13.2403C8.90547 12.6372 9.62711 12.2265 10.4127 12.0601C11.1984 11.8938 12.0127 11.9792 12.7527 12.3055C13.4928 12.6319 14.1253 13.1846 14.5703 13.8937C15.0153 14.6028 15.2529 15.4365 15.2529 16.2893C15.2517 17.4326 14.8246 18.5286 14.0653 19.337C13.3061 20.1454 12.2766 20.6001 11.2029 20.6014V20.6014ZM23.8029 20.6014C23.0019 20.6014 22.2189 20.3485 21.5528 19.8747C20.8868 19.4009 20.3677 18.7274 20.0612 17.9395C19.7546 17.1516 19.6744 16.2846 19.8307 15.4481C19.987 14.6116 20.3727 13.8433 20.9391 13.2403C21.5055 12.6372 22.2272 12.2265 23.0128 12.0601C23.7984 11.8938 24.6127 11.9792 25.3528 12.3055C26.0928 12.6319 26.7253 13.1846 27.1704 13.8937C27.6154 14.6028 27.8529 15.4365 27.8529 16.2893C27.8517 17.4326 27.4246 18.5286 26.6654 19.337C25.9061 20.1454 24.8767 20.6001 23.8029 20.6014V20.6014Z" fill="white" fill-opacity="0.48"/>
</g>
<g style="mix-blend-mode:soft-light" filter="url(#filter1_d)">
<mask id="path-2-inside-1" fill="white">
<path d="M12.1426 8.82068C12.1918 8.93652 12.2821 9.02683 12.3938 9.07176C12.5054 9.11669 12.6293 9.11254 12.7381 9.06023C12.8469 9.00793 12.9317 8.91175 12.9739 8.79286C13.0161 8.67396 13.0122 8.54209 12.9631 8.42625L11.4865 4.94493L13.8457 5.26566C13.925 5.27731 14.0057 5.26589 14.0793 5.23261C14.1529 5.19933 14.2167 5.14543 14.2639 5.07664C14.3115 5.00843 14.3413 4.92796 14.3501 4.84348C14.3589 4.759 14.3464 4.67355 14.314 4.59588L12.514 0.283826C12.4654 0.167904 12.3756 0.077253 12.2643 0.0317844C12.1529 -0.0136841 12.0292 -0.0102525 11.9203 0.0413259C11.8113 0.0929042 11.7261 0.188412 11.6832 0.306871C11.6404 0.425329 11.6435 0.557053 11.6918 0.673109L13.167 4.2073L10.8023 3.88586C10.7228 3.87451 10.642 3.88619 10.5682 3.91966C10.4945 3.95314 10.4306 4.00717 10.3833 4.07607C10.3357 4.14461 10.3061 4.22541 10.2976 4.31016C10.2891 4.39491 10.302 4.48054 10.3349 4.55823L12.1426 8.82068Z"/>
</mask>
<path d="M12.1426 8.82068C12.1918 8.93652 12.2821 9.02683 12.3938 9.07176C12.5054 9.11669 12.6293 9.11254 12.7381 9.06023C12.8469 9.00793 12.9317 8.91175 12.9739 8.79286C13.0161 8.67396 13.0122 8.54209 12.9631 8.42625L11.4865 4.94493L13.8457 5.26566C13.925 5.27731 14.0057 5.26589 14.0793 5.23261C14.1529 5.19933 14.2167 5.14543 14.2639 5.07664C14.3115 5.00843 14.3413 4.92796 14.3501 4.84348C14.3589 4.759 14.3464 4.67355 14.314 4.59588L12.514 0.283826C12.4654 0.167904 12.3756 0.077253 12.2643 0.0317844C12.1529 -0.0136841 12.0292 -0.0102525 11.9203 0.0413259C11.8113 0.0929042 11.7261 0.188412 11.6832 0.306871C11.6404 0.425329 11.6435 0.557053 11.6918 0.673109L13.167 4.2073L10.8023 3.88586C10.7228 3.87451 10.642 3.88619 10.5682 3.91966C10.4945 3.95314 10.4306 4.00717 10.3833 4.07607C10.3357 4.14461 10.3061 4.22541 10.2976 4.31016C10.2891 4.39491 10.302 4.48054 10.3349 4.55823L12.1426 8.82068Z" fill="white" fill-opacity="0.48"/>
<path d="M12.1426 8.82068L13.0633 8.43025L13.0633 8.43024L12.1426 8.82068ZM12.9631 8.42625L13.8837 8.03582L13.8837 8.03578L12.9631 8.42625ZM11.4865 4.94493L11.6212 3.95404L9.8796 3.71727L10.5659 5.3354L11.4865 4.94493ZM13.8457 5.26566L13.9912 4.27624L13.9805 4.27478L13.8457 5.26566ZM14.2639 5.07664L13.444 4.50403L13.4391 4.51121L14.2639 5.07664ZM14.314 4.59588L13.3912 4.9811L13.3912 4.98126L14.314 4.59588ZM12.514 0.283826L13.4368 -0.101394L13.4362 -0.102716L12.514 0.283826ZM11.6918 0.673109L10.7685 1.05736L10.7689 1.05832L11.6918 0.673109ZM13.167 4.2073L13.0323 5.19819L14.7624 5.43336L14.0898 3.82209L13.167 4.2073ZM10.8023 3.88586L10.6609 4.87583L10.6676 4.87675L10.8023 3.88586ZM10.3833 4.07607L11.2047 4.64636L11.2076 4.64221L10.3833 4.07607ZM10.3349 4.55823L9.41421 4.94842L9.41431 4.94866L10.3349 4.55823ZM11.222 9.2111C11.3697 9.55931 11.65 9.85044 12.0205 9.9995L12.767 8.14402C12.9142 8.20323 13.0138 8.31372 13.0633 8.43025L11.222 9.2111ZM12.0205 9.9995C12.3937 10.1496 12.8102 10.1351 13.1714 9.9615L12.3048 8.15897C12.4484 8.08997 12.6172 8.08375 12.767 8.14402L12.0205 9.9995ZM13.1714 9.9615C13.5297 9.78924 13.7903 9.48246 13.9163 9.12732L12.0315 8.4584C12.0732 8.34105 12.1641 8.22662 12.3048 8.15897L13.1714 9.9615ZM13.9163 9.12732C14.042 8.77327 14.0308 8.38273 13.8837 8.03582L12.0425 8.81668C11.9936 8.70145 11.9902 8.57465 12.0315 8.4584L13.9163 9.12732ZM13.8837 8.03578L12.4071 4.55446L10.5659 5.3354L12.0425 8.81672L13.8837 8.03578ZM11.3518 5.93581L13.711 6.25655L13.9805 4.27478L11.6212 3.95404L11.3518 5.93581ZM13.7003 6.25502C13.9707 6.2948 14.2448 6.25525 14.4912 6.14383L13.6674 4.32139C13.7666 4.27654 13.8792 4.25983 13.9912 4.2763L13.7003 6.25502ZM14.4912 6.14383C14.7371 6.0327 14.9416 5.85661 15.0887 5.64207L13.4391 4.51121C13.4918 4.43425 13.5688 4.36595 13.6674 4.32139L14.4912 6.14383ZM15.0837 5.64923C15.2305 5.43904 15.3187 5.19652 15.3447 4.94713L13.3555 4.73983C13.3638 4.6594 13.3925 4.57782 13.444 4.50405L15.0837 5.64923ZM15.3447 4.94713C15.3707 4.69779 15.3343 4.44407 15.2367 4.21051L13.3912 4.98126C13.3585 4.90302 13.3471 4.82021 13.3555 4.73983L15.3447 4.94713ZM15.2368 4.21066L13.4368 -0.101394L11.5911 0.669046L13.3912 4.9811L15.2368 4.21066ZM13.4362 -0.102716C13.2902 -0.451112 13.0116 -0.743154 12.6424 -0.893965L11.8861 0.957534C11.7395 0.89766 11.6406 0.78692 11.5917 0.670369L13.4362 -0.102716ZM12.6424 -0.893965C12.2705 -1.04587 11.8543 -1.03385 11.4924 -0.862493L12.3482 0.945145C12.2041 1.01335 12.0354 1.0185 11.8861 0.957534L12.6424 -0.893965ZM11.4924 -0.862493C11.1332 -0.692454 10.871 -0.387431 10.7429 -0.033288L12.6236 0.647029C12.5812 0.764254 12.4895 0.878262 12.3482 0.945145L11.4924 -0.862493ZM10.7429 -0.033288C10.6152 0.319743 10.6239 0.709928 10.7685 1.05736L12.615 0.288862C12.663 0.404177 12.6656 0.530915 12.6236 0.647029L10.7429 -0.033288ZM10.7689 1.05832L12.2442 4.59251L14.0898 3.82209L12.6146 0.2879L10.7689 1.05832ZM13.3017 3.21641L10.937 2.89497L10.6676 4.87675L13.0323 5.19819L13.3017 3.21641ZM10.9437 2.89591C10.6738 2.85734 10.4006 2.89757 10.1549 3.00909L10.9816 4.83024C10.8834 4.8748 10.7719 4.89167 10.6609 4.87581L10.9437 2.89591ZM10.1549 3.00909C9.90987 3.12031 9.7059 3.296 9.55897 3.50993L11.2076 4.64221C11.1553 4.71834 11.0791 4.78596 10.9816 4.83024L10.1549 3.00909ZM9.56183 3.50578C9.41528 3.71688 9.3277 3.96029 9.30263 4.21041L11.2926 4.40992C11.2846 4.49053 11.2561 4.57234 11.2047 4.64636L9.56183 3.50578ZM9.30263 4.21041C9.27756 4.46046 9.31516 4.71471 9.41421 4.94842L11.2557 4.16804C11.2889 4.24637 11.3007 4.32936 11.2926 4.40992L9.30263 4.21041ZM9.41431 4.94866L11.222 9.21111L13.0633 8.43024L11.2556 4.16779L9.41431 4.94866Z" fill="white" fill-opacity="0.48" mask="url(#path-2-inside-1)"/>
</g>
<g style="mix-blend-mode:soft-light">
<mask id="path-4-inside-2" fill="white">
<path d="M11.2029 18.6849C10.6707 18.6867 10.1552 18.487 9.74872 18.1213C9.34221 17.7556 9.07116 17.2478 8.98405 16.6889C8.9643 16.5635 8.89859 16.4517 8.80138 16.3779C8.70418 16.3042 8.58343 16.2746 8.46572 16.2956C8.348 16.3166 8.24295 16.3866 8.17368 16.4901C8.10442 16.5936 8.0766 16.7221 8.09635 16.8475C8.21827 17.6302 8.59772 18.3412 9.16685 18.8534C9.73597 19.3656 10.4577 19.6455 11.2029 19.6431C11.3222 19.6431 11.4367 19.5926 11.5211 19.5028C11.6054 19.4129 11.6529 19.2911 11.6529 19.164C11.6529 19.0369 11.6054 18.9151 11.5211 18.8252C11.4367 18.7353 11.3222 18.6849 11.2029 18.6849Z"/>
</mask>
<path d="M11.2029 18.6849C10.6707 18.6867 10.1552 18.487 9.74872 18.1213C9.34221 17.7556 9.07116 17.2478 8.98405 16.6889C8.9643 16.5635 8.89859 16.4517 8.80138 16.3779C8.70418 16.3042 8.58343 16.2746 8.46572 16.2956C8.348 16.3166 8.24295 16.3866 8.17368 16.4901C8.10442 16.5936 8.0766 16.7221 8.09635 16.8475C8.21827 17.6302 8.59772 18.3412 9.16685 18.8534C9.73597 19.3656 10.4577 19.6455 11.2029 19.6431C11.3222 19.6431 11.4367 19.5926 11.5211 19.5028C11.6054 19.4129 11.6529 19.2911 11.6529 19.164C11.6529 19.0369 11.6054 18.9151 11.5211 18.8252C11.4367 18.7353 11.3222 18.6849 11.2029 18.6849Z" fill="white" fill-opacity="0.48"/>
<path d="M11.2029 18.6849L11.2029 17.6849L11.1993 17.6849L11.2029 18.6849ZM8.98405 16.6889L9.97213 16.5349L9.97186 16.5332L8.98405 16.6889ZM8.09635 16.8475L9.08444 16.6936L9.08416 16.6918L8.09635 16.8475ZM11.2029 19.6431L11.2029 18.6431L11.1997 18.6431L11.2029 19.6431ZM11.1993 17.6849C10.9227 17.6859 10.6451 17.5826 10.4175 17.3778L9.07993 18.8647C9.66536 19.3914 10.4186 19.6876 11.2064 19.6849L11.1993 17.6849ZM10.4175 17.3778C10.1884 17.1717 10.0251 16.875 9.97213 16.5349L7.99598 16.8428C8.11719 17.6207 8.49602 18.3395 9.07993 18.8647L10.4175 17.3778ZM9.97186 16.5332C9.91366 16.164 9.71771 15.8179 9.40581 15.5813L8.19696 17.1746C8.07947 17.0855 8.01493 16.9631 7.99625 16.8446L9.97186 16.5332ZM9.40581 15.5813C9.09127 15.3426 8.68875 15.2399 8.28983 15.3112L8.64161 17.28C8.47812 17.3092 8.31708 17.2657 8.19696 17.1746L9.40581 15.5813ZM8.28983 15.3112C7.89244 15.3822 7.55602 15.6151 7.34264 15.9339L9.00473 17.0463C8.92988 17.1581 8.80356 17.2511 8.64161 17.28L8.28983 15.3112ZM7.34264 15.9339C7.13052 16.2508 7.05043 16.6345 7.10855 17.0032L9.08416 16.6918C9.10277 16.8098 9.07831 16.9364 9.00473 17.0463L7.34264 15.9339ZM7.10827 17.0014C7.26426 18.0029 7.75145 18.925 8.49791 19.5967L9.83578 18.1101C9.44399 17.7575 9.17227 17.2575 9.08444 16.6936L7.10827 17.0014ZM8.49791 19.5967C9.2459 20.2699 10.2053 20.6463 11.2061 20.6431L11.1997 18.6431C10.71 18.6447 10.226 18.4613 9.83578 18.1101L8.49791 19.5967ZM11.2029 20.6431C11.6084 20.6431 11.9836 20.471 12.25 20.1874L10.7922 18.8182C10.8898 18.7142 11.036 18.6431 11.2029 18.6431V20.6431ZM12.25 20.1874C12.5144 19.9059 12.6529 19.5367 12.6529 19.164H10.6529C10.6529 19.0454 10.6965 18.92 10.7922 18.8182L12.25 20.1874ZM12.6529 19.164C12.6529 18.7912 12.5144 18.4221 12.25 18.1406L10.7922 19.5098C10.6965 19.408 10.6529 19.2826 10.6529 19.164H12.6529ZM12.25 18.1406C11.9836 17.857 11.6084 17.6849 11.2029 17.6849V19.6849C11.036 19.6849 10.8898 19.6137 10.7922 19.5098L12.25 18.1406Z" fill="white" fill-opacity="0.48" mask="url(#path-4-inside-2)"/>
</g>
<g style="mix-blend-mode:soft-light">
<path d="M23.8029 18.6849C23.2707 18.6867 22.7553 18.487 22.3488 18.1213C21.9423 17.7556 21.6712 17.2478 21.5841 16.6889C21.5643 16.5635 21.4986 16.4517 21.4014 16.3779C21.3042 16.3042 21.1835 16.2746 21.0658 16.2956C20.948 16.3166 20.843 16.3866 20.7737 16.4901C20.7045 16.5936 20.6766 16.7221 20.6964 16.8475C20.8183 17.6302 21.1978 18.3412 21.7669 18.8534C22.336 19.3656 23.0577 19.6455 23.8029 19.6431C23.9222 19.6431 24.0367 19.5926 24.1211 19.5028C24.2055 19.4129 24.2529 19.2911 24.2529 19.164C24.2529 19.0369 24.2055 18.9151 24.1211 18.8252C24.0367 18.7353 23.9222 18.6849 23.8029 18.6849Z" fill="white" fill-opacity="0.48"/>
<path d="M20.6964 16.8475L20.6964 16.8475L20.6964 16.8475Z" stroke="white" stroke-opacity="0.48"/>
</g>
<defs>
<filter id="filter0_d" x="0" y="11.019" width="35" height="19.981" filterUnits="userSpaceOnUse" color-interpolation-filters="sRGB">
<feFlood flood-opacity="0" result="BackgroundImageFix"/>
<feColorMatrix in="SourceAlpha" type="matrix" values="0 0 0 0 0 0 0 0 0 0 0 0 0 0 0 0 0 0 127 0"/>
<feOffset dy="4"/>
<feGaussianBlur stdDeviation="2"/>
<feColorMatrix type="matrix" values="0 0 0 0 0 0 0 0 0 0 0 0 0 0 0 0 0 0 0.25 0"/>
<feBlend mode="normal" in2="BackgroundImageFix" result="effect1_dropShadow"/>
<feBlend mode="normal" in="SourceGraphic" in2="effect1_dropShadow" result="shape"/>
</filter>
<filter id="filter1_d" x="6.29509" y="0" width="12.0577" height="17.1027" filterUnits="userSpaceOnUse" color-interpolation-filters="sRGB">
<feFlood flood-opacity="0" result="BackgroundImageFix"/>
<feColorMatrix in="SourceAlpha" type="matrix" values="0 0 0 0 0 0 0 0 0 0 0 0 0 0 0 0 0 0 127 0"/>
<feOffset dy="4"/>
<feGaussianBlur stdDeviation="2"/>
<feColorMatrix type="matrix" values="0 0 0 0 0 0 0 0 0 0 0 0 0 0 0 0 0 0 0.5 0"/>
<feBlend mode="normal" in2="BackgroundImageFix" result="effect1_dropShadow"/>
<feBlend mode="normal" in="SourceGraphic" in2="effect1_dropShadow" result="shape"/>
</filter>
</defs>
</svg>
