<svg width="32" height="32" viewBox="0 0 32 32" fill="none" xmlns="http://www.w3.org/2000/svg">
<g clip-path="url(#clip0)" filter="url(#filter0_d)">
<path d="M16 23.5C18.4853 23.5 20.5 21.4853 20.5 19C20.5 16.5147 18.4853 14.5 16 14.5C13.5147 14.5 11.5 16.5147 11.5 19C11.5 21.4853 13.5147 23.5 16 23.5Z" stroke="#303C42" stroke-miterlimit="10" stroke-linecap="round" stroke-linejoin="round"/>
<path d="M16 21.5C14.6211 21.5 13.5 20.3784 13.5 19" stroke="#303C42" stroke-miterlimit="10" stroke-linecap="round" stroke-linejoin="round"/>
<path d="M19.6722 16.399C19.6722 16.399 21.5 15.5 21.5 13C21.5 10.5 20.5 10.5 20.5 8.5C20.5 4.5 27 6 26.5 0.5C26.5 0.5 27.5 2 27.5 3C27.5 4 27.5 4 27 4.99942C27 4.99942 27.5 5.5 27.5 7C27.5 8.5 26 9.5 26 9.5C26 9.5 26.5 11.5 24.5 12.5C24.5 12.5 24.6722 14.399 19.6722 16.399Z" stroke="#303C42" stroke-miterlimit="10" stroke-linecap="round" stroke-linejoin="round"/>
<path d="M12.3275 16.3989C12.3275 16.3989 10.5 15.5 10.5 13C10.5 10.5 11.5 10.5 11.5 8.5C11.5 4.5 5 6 5.5 0.5C5.5 0.5 4.5 2 4.5 3C4.5 4 4.5 4 5 4.99942C5 4.99942 4.5 5.5 4.5 7C4.5 8.5 6 9.5 6 9.5C6 9.5 5.5 11.5 7.5 12.5C7.5 12.5 7.32752 14.3989 12.3275 16.3989Z" stroke="#303C42" stroke-miterlimit="10" stroke-linecap="round" stroke-linejoin="round"/>
</g>
<defs>
<filter id="filter0_d" x="0" y="0" width="32" height="32" filterUnits="userSpaceOnUse" color-interpolation-filters="sRGB">
<feFlood flood-opacity="0" result="BackgroundImageFix"/>
<feColorMatrix in="SourceAlpha" type="matrix" values="0 0 0 0 0 0 0 0 0 0 0 0 0 0 0 0 0 0 127 0"/>
<feOffset dy="4"/>
<feGaussianBlur stdDeviation="2"/>
<feColorMatrix type="matrix" values="0 0 0 0 0 0 0 0 0 0 0 0 0 0 0 0 0 0 0.5 0"/>
<feBlend mode="normal" in2="BackgroundImageFix" result="effect1_dropShadow"/>
<feBlend mode="normal" in="SourceGraphic" in2="effect1_dropShadow" result="shape"/>
</filter>
<clipPath id="clip0">
<rect width="24" height="24" fill="white" transform="translate(4)"/>
</clipPath>
</defs>
</svg>
